# xmcd
#
# Track frame offsets:
# 150
# 14012
# 27364
# 42054
# 53467
# 73717
# 86342
# 101372
# 112792
# 125632
# 138444
# 153594
# 171334
# 186942
# 203395
# 219817
# 233575
# 247860
# 261145
# 270100
# 285220
# 306300
#
# Disc length: 4404 seconds
#
# Revision: 0
# Processed by: cddbd v1.5.2PL0 Copyright (c) Steve Scherf et al.
# Submitted via: Audion 3.0.2 (http://www.panic.com/audion/)
#
DISCID=18113216
DTITLE=compil - compil
DYEAR=1900
DGENRE=
TTITLE0=a
TTITLE1=z
TTITLE2=e
TTITLE3=r
TTITLE4=t
TTITLE5=y
TTITLE6=u
TTITLE7=i
TTITLE8=o
TTITLE9=p
TTITLE10=^q
TTITLE11=s
TTITLE12=df
TTITLE13=g
TTITLE14=h
TTITLE15=j
TTITLE16=k
TTITLE17=m
TTITLE18=w
TTITLE19=x
TTITLE20=c
TTITLE21=v
EXTD=
EXTT0=
EXTT1=
EXTT2=
EXTT3=
EXTT4=
EXTT5=
EXTT6=
EXTT7=
EXTT8=
EXTT9=
EXTT10=
EXTT11=
EXTT12=
EXTT13=
EXTT14=
EXTT15=
EXTT16=
EXTT17=
EXTT18=
EXTT19=
EXTT20=
EXTT21=
PLAYORDER=
